<?xml version="1.0" encoding="UTF-8" standalone="no"?>
<!DOCTYPE svg PUBLIC "-//W3C//DTD SVG 1.1//EN"
 "http://www.w3.org/Graphics/SVG/1.1/DTD/svg11.dtd">
<!-- Generated by graphviz version 2.40.1 (20161225.0304)
 -->
<!-- Title: services Pages: 1 -->
<svg width="246pt" height="293pt"
 viewBox="0.00 0.00 246.00 293.00" xmlns="http://www.w3.org/2000/svg" xmlns:xlink="http://www.w3.org/1999/xlink">
<g id="graph0" class="graph" transform="scale(1 1) rotate(0) translate(4 289)">
<title>services</title>
<polygon fill="#ffffff" stroke="transparent" points="-4,4 -4,-289 242,-289 242,4 -4,4"/>
<g id="clust1" class="cluster">
<title>cluster_0</title>
<polygon fill="none" stroke="#000000" points="8,-8 8,-208 230,-208 230,-8 8,-8"/>
<text text-anchor="middle" x="119" y="-192.8" font-family="Times,serif" font-size="14.00" fill="#000000">cloudless</text>
</g>
<!-- web&#45;1 (cloudless) -->
<g id="node1" class="node">
<title>web&#45;1 (cloudless)</title>
<ellipse fill="none" stroke="#000000" cx="119" cy="-159" rx="91.784" ry="18"/>
<text text-anchor="middle" x="119" y="-155.3" font-family="Times,serif" font-size="14.00" fill="#000000">web&#45;1 (cloudless)</text>
</g>
<!-- consul&#45;1 (cloudless) -->
<g id="node2" class="node">
<title>consul&#45;1 (cloudless)</title>
<ellipse fill="none" stroke="#000000" cx="119" cy="-34" rx="102.8821" ry="18"/>
<text text-anchor="middle" x="119" y="-30.3" font-family="Times,serif" font-size="14.00" fill="#000000">consul&#45;1 (cloudless)</text>
</g>
<!-- web&#45;1 (cloudless)&#45;&gt;consul&#45;1 (cloudless) -->
<g id="edge1" class="edge">
<title>web&#45;1 (cloudless)&#45;&gt;consul&#45;1 (cloudless)</title>
<path fill="none" stroke="#000000" d="M119,-140.8239C119,-120.2723 119,-86.5472 119,-62.4893"/>
<polygon fill="#000000" stroke="#000000" points="122.5001,-62.198 119,-52.198 115.5001,-62.198 122.5001,-62.198"/>
<text text-anchor="middle" x="156.5" y="-92.8" font-family="Times,serif" font-size="14.00" fill="#000000">(tcp:8500)</text>
</g>
<!-- 0.0.0.0/0 (external) -->
<g id="node3" class="node">
<title>0.0.0.0/0 (external)</title>
<ellipse fill="none" stroke="#000000" cx="119" cy="-267" rx="100.1823" ry="18"/>
<text text-anchor="middle" x="119" y="-263.3" font-family="Times,serif" font-size="14.00" fill="#000000">0.0.0.0/0 (external)</text>
</g>
<!-- 0.0.0.0/0 (external)&#45;&gt;web&#45;1 (cloudless) -->
<g id="edge2" class="edge">
<title>0.0.0.0/0 (external)&#45;&gt;web&#45;1 (cloudless)</title>
<path fill="none" stroke="#000000" d="M93.6408,-249.3073C88.1209,-244.1026 83.0305,-237.9215 80,-231 77.3262,-224.893 78.0297,-222.3689 80,-216 83.4457,-204.8619 89.9002,-193.9618 96.5808,-184.7256"/>
<polygon fill="#000000" stroke="#000000" points="99.3884,-186.8161 102.6998,-176.7521 93.8351,-182.5545 99.3884,-186.8161"/>
<text text-anchor="middle" x="108.5" y="-219.8" font-family="Times,serif" font-size="14.00" fill="#000000">(tcp:80)</text>
</g>
<!-- 0.0.0.0/0 (external)&#45;&gt;web&#45;1 (cloudless) -->
<g id="edge3" class="edge">
<title>0.0.0.0/0 (external)&#45;&gt;web&#45;1 (cloudless)</title>
<path fill="none" stroke="#000000" d="M130.0675,-248.9406C132.9014,-243.3873 135.5551,-237.1207 137,-231 140.4677,-216.3105 136.9931,-199.9889 132.2034,-186.6046"/>
<polygon fill="#000000" stroke="#000000" points="135.3348,-185.0081 128.3775,-177.0177 128.8333,-187.6027 135.3348,-185.0081"/>
<text text-anchor="middle" x="171" y="-219.8" font-family="Times,serif" font-size="14.00" fill="#000000">(tcp:443)</text>
</g>
</g>
</svg>
